# xmcd
#
# Track frame offsets: 
#        150
#        21348
#        45680
#        65630
#        87238
#        119650
#        142308
#        164370
#        186098
#        206665
#        229420
#        254420
#
# Disc length: 3674 seconds
#
# Revision: 0
# Processed by: cddbd v1.5.2PL0 Copyright (c) Steve Scherf et al.
# Submitted via: ExactAudioCopy v1.0b3
#
DISCID=bb0e580c
DTITLE=Huong Lan, VA - Ngan Ngo Sau
DYEAR=1989
DGENRE=
TTITLE0=Huong Lan - Mau tim pensée
TTITLE1=Huong Lan, Duy Quang - Loai hoa khong ten
TTITLE2=Huong Lan - Yeu la ao mong
TTITLE3=Huong Lan, Tuan Anh - Tron doi thuong nhau
TTITLE4=Huong Lan - Neu hai dua minh
TTITLE5=Huong Lan, Tuan Vu - Dep long nguoi yeu
TTITLE6=Huong Lan - Xin dung hoi toi
TTITLE7=Huong Lan, Tuan Vu - Hai hoa rung cho em
TTITLE8=Huong Lan - Goi niem thuong ve Hue
TTITLE9=Huong Lan, Tuan Anh - Buon thoi gian
TTITLE10=Huong Lan - Ngan ngo sau
TTITLE11=Huong Lan, Duy Quang - Mot lan den tham anh
EXTD=
EXTT0=
EXTT1=
EXTT2=
EXTT3=
EXTT4=
EXTT5=
EXTT6=
EXTT7=
EXTT8=
EXTT9=
EXTT10=
EXTT11=
PLAYORDER=
